<svg width="350" height="50" viewBox="0 0 350 50" fill="none" xmlns="http://www.w3.org/2000/svg">
<path fill-rule="evenodd" clip-rule="evenodd" d="M0 20C0 8.9543 8.95431 0 20 0H268C274.486 0 280.251 3.08756 283.905 7.87309C286.755 11.6047 290.652 15 295.347 15V15C299.437 15 302.995 12.4425 305.571 9.26564C310.155 3.61297 317.156 0 325 0C338.807 0 350 11.1929 350 25C350 38.8071 338.807 50 325 50C317.156 50 310.155 46.387 305.571 40.7344C302.995 37.5575 299.437 35 295.347 35V35C290.652 35 286.755 38.3953 283.905 42.1269C280.251 46.9124 274.486 50 268 50H20C8.9543 50 0 41.0457 0 30V20Z" fill="#161414"/>
</svg>
