<svg width="284" height="50" viewBox="0 0 284 50" fill="none" xmlns="http://www.w3.org/2000/svg">
<path fill-rule="evenodd" clip-rule="evenodd" d="M0 20C0 8.9543 8.9543 0 20 0H202C208.486 0 214.251 3.08756 217.905 7.87311C220.755 11.6047 224.652 15 229.347 15C233.437 15 236.995 12.4425 239.571 9.26565C244.155 3.61297 251.156 0 259 0C272.807 0 284 11.1929 284 25C284 38.8071 272.807 50 259 50C251.156 50 244.155 46.387 239.571 40.7344C236.995 37.5575 233.437 35 229.347 35C224.652 35 220.755 38.3953 217.905 42.1269C214.251 46.9124 208.486 50 202 50H20C8.95431 50 0 41.0457 0 30V20Z" fill="#FFBE98"/>
</svg>
