<svg width="222" height="50" viewBox="0 0 222 50" fill="none" xmlns="http://www.w3.org/2000/svg">
<path fill-rule="evenodd" clip-rule="evenodd" d="M0 20C0 8.9543 8.95431 0 20 0H140C146.486 0 152.251 3.08756 155.905 7.87311C158.755 11.6047 162.652 15 167.347 15C171.437 15 174.995 12.4425 177.571 9.26565C182.155 3.61297 189.156 0 197 0C210.807 0 222 11.1929 222 25C222 38.8071 210.807 50 197 50C189.156 50 182.155 46.387 177.571 40.7344C174.995 37.5575 171.437 35 167.347 35C162.652 35 158.755 38.3953 155.905 42.1269C152.251 46.9124 146.486 50 140 50H20C8.95431 50 0 41.0457 0 30V20Z" fill="#161414"/>
</svg>
